<?xml version="1.0" standalone="no"?>
<!DOCTYPE svg PUBLIC "-//W3C//DTD SVG 20010904//EN"
 "http://www.w3.org/TR/2001/REC-SVG-20010904/DTD/svg10.dtd">
<svg version="1.0" xmlns="http://www.w3.org/2000/svg"
 width="1024.000000pt" height="1024.000000pt" viewBox="0 0 1024.000000 1024.000000"
 preserveAspectRatio="xMidYMid meet">
<metadata>
Created by potrace 1.11, written by Peter Selinger 2001-2013
</metadata>
<g transform="translate(0.000000,1024.000000) scale(0.100000,-0.100000)"
fill="#000000" stroke="none">
<path d="M4917 10154 c-1 -1 -51 -5 -112 -8 -60 -3 -126 -8 -145 -10 -19 -3
-62 -7 -95 -10 -159 -16 -474 -73 -667 -122 -201 -50 -507 -151 -668 -219 -30
-13 -75 -32 -100 -42 -25 -10 -131 -61 -235 -113 -317 -159 -600 -337 -875
-553 -63 -50 -120 -95 -125 -101 -6 -6 -44 -40 -85 -75 -102 -87 -398 -386
-490 -495 -359 -426 -631 -866 -820 -1326 -23 -58 -49 -118 -56 -135 -32 -75
-154 -454 -169 -524 -2 -9 -13 -56 -25 -106 -12 -49 -23 -97 -25 -105 -2 -8
-10 -49 -19 -90 -13 -64 -28 -152 -41 -235 -5 -33 -25 -197 -30 -240 -15 -148
-19 -243 -20 -500 0 -296 6 -427 30 -620 15 -121 62 -390 80 -465 8 -30 16
-69 19 -85 21 -123 146 -511 233 -724 46 -114 161 -365 193 -422 66 -120 91
-172 86 -185 -3 -8 -30 -52 -60 -97 -67 -102 -128 -222 -152 -302 -10 -33 -21
-62 -24 -65 -3 -3 -6 -14 -7 -25 0 -11 -3 -30 -6 -41 -25 -104 -39 -392 -25
-499 3 -16 0 -36 -6 -44 -8 -11 -8 -13 1 -7 9 5 13 -1 14 -21 4 -70 5 -82 12
-89 11 -12 8 -36 -4 -28 -6 3 -4 -4 4 -17 14 -22 32 -90 27 -105 -1 -4 3 -10
8 -13 6 -4 13 -18 15 -31 2 -14 9 -36 14 -50 6 -14 9 -35 8 -47 -1 -12 1 -20
6 -18 11 7 22 -32 13 -47 -4 -7 -3 -10 1 -5 8 7 55 -77 55 -100 0 -6 3 -13 8
-15 4 -2 20 -29 37 -61 16 -31 33 -57 37 -57 4 0 8 -5 8 -11 0 -12 47 -78 69
-97 8 -6 12 -12 8 -12 -4 0 7 -13 23 -29 17 -15 30 -32 30 -36 0 -4 11 -16 25
-27 14 -11 22 -24 19 -30 -4 -6 -3 -8 3 -5 5 3 31 -14 59 -39 27 -25 77 -64
111 -86 35 -23 63 -46 63 -52 0 -5 3 -7 6 -3 6 6 144 -61 155 -76 3 -4 15 -9
26 -11 11 -2 37 -14 59 -25 21 -12 43 -21 47 -21 5 0 23 -6 40 -14 76 -35 205
-81 282 -101 17 -5 35 -9 40 -11 6 -2 20 -5 33 -8 13 -3 32 -8 42 -11 21 -7
22 -7 140 -28 167 -31 353 -39 525 -24 76 7 226 39 270 57 63 26 123 56 147
72 30 21 42 23 32 6 -4 -7 -3 -8 5 -4 6 4 9 11 7 15 -3 4 9 16 27 26 18 10 37
24 43 29 6 6 25 22 43 36 54 41 140 128 133 135 -3 3 15 -2 41 -12 25 -9 44
-20 42 -24 -3 -4 1 -7 8 -6 39 1 58 -4 51 -15 -4 -7 -3 -8 4 -4 7 4 18 4 25
-1 6 -4 17 -8 22 -10 52 -11 184 -61 178 -67 -4 -4 0 -4 8 -1 9 3 36 -1 60 -9
24 -7 67 -20 96 -27 29 -7 49 -17 46 -22 -3 -6 -1 -7 4 -4 14 9 74 -3 68 -13
-3 -5 3 -6 13 -3 10 2 56 -5 103 -16 83 -20 261 -53 349 -66 25 -4 59 -9 75
-11 33 -6 68 -10 165 -19 36 -4 81 -8 100 -10 202 -21 724 -21 850 0 14 2 57
6 95 10 65 6 241 30 292 39 11 3 43 8 70 12 26 5 50 8 53 9 3 1 19 4 35 8 17
4 41 8 55 11 163 27 539 138 765 226 313 120 645 288 915 463 92 59 340 234
350 246 3 4 37 31 75 61 200 156 484 429 665 639 58 68 205 252 230 288 8 11
46 65 85 120 341 479 598 1040 746 1627 23 87 42 168 45 180 2 11 6 32 9 46
13 62 36 189 41 225 3 30 13 94 19 127 2 9 7 52 10 95 4 43 8 80 10 83 2 3 7
61 12 130 15 223 8 693 -12 855 -2 17 -7 59 -10 95 -4 36 -9 74 -11 85 -2 11
-7 43 -10 70 -3 28 -9 66 -14 85 -5 19 -11 53 -15 75 -9 62 -43 221 -70 325
-14 52 -27 104 -30 116 -3 12 -19 66 -36 120 -17 54 -37 119 -45 144 -8 25
-18 54 -23 65 -5 11 -17 43 -26 70 -20 57 -22 63 -95 235 -53 125 -143 309
-220 450 -39 71 -185 313 -202 335 -4 6 -46 64 -93 130 -82 116 -119 167 -140
189 -5 6 -29 36 -53 68 -24 31 -53 67 -65 80 -12 14 -51 58 -86 99 -79 90
-317 329 -425 424 -490 437 -1089 784 -1717 996 -97 33 -184 62 -195 64 -10 2
-80 20 -154 40 -124 32 -307 73 -355 80 -11 1 -63 10 -115 18 -52 8 -122 18
-155 22 -32 4 -62 8 -65 10 -3 1 -41 5 -85 9 -44 3 -114 9 -155 12 -71 6 -537
13 -543 8z"/>
<path d="M256 1842 c-3 -5 1 -9 9 -9 8 0 12 4 9 9 -3 4 -7 8 -9 8 -2 0 -6 -4
-9 -8z"/>
<path d="M426 1605 c-11 -8 -15 -15 -9 -15 6 0 16 7 23 15 16 19 11 19 -14 0z"/>
<path d="M453 1425 c0 -8 4 -12 9 -9 5 3 6 10 3 15 -9 13 -12 11 -12 -6z"/>
<path d="M430 1379 c0 -5 5 -7 10 -4 6 3 10 8 10 11 0 2 -4 4 -10 4 -5 0 -10
-5 -10 -11z"/>
<path d="M459 1328 c-5 -18 -6 -38 -1 -34 7 8 12 36 6 36 -2 0 -4 -1 -5 -2z"/>
<path d="M459 1268 c-5 -18 -6 -38 -1 -34 7 8 12 36 6 36 -2 0 -4 -1 -5 -2z"/>
<path d="M490 1260 c0 -5 5 -10 11 -10 5 0 7 5 4 10 -3 6 -8 10 -11 10 -2 0
-4 -4 -4 -10z"/>
<path d="M516 1207 c3 -10 9 -15 12 -12 3 3 0 11 -7 18 -10 9 -11 8 -5 -6z"/>
<path d="M393 1195 c0 -8 4 -12 9 -9 5 3 6 10 3 15 -9 13 -12 11 -12 -6z"/>
<path d="M450 1200 c0 -5 5 -10 11 -10 5 0 7 5 4 10 -3 6 -8 10 -11 10 -2 0
-4 -4 -4 -10z"/>
<path d="M494 1136 c1 -8 5 -18 8 -22 4 -3 5 1 4 10 -1 8 -5 18 -8 22 -4 3 -5
-1 -4 -10z"/>
<path d="M534 1116 c1 -8 5 -18 8 -22 4 -3 5 1 4 10 -1 8 -5 18 -8 22 -4 3 -5
-1 -4 -10z"/>
<path d="M513 1065 c0 -8 4 -12 9 -9 5 3 6 10 3 15 -9 13 -12 11 -12 -6z"/>
<path d="M400 1000 c-9 -6 -10 -10 -3 -10 6 0 15 5 18 10 8 12 4 12 -15 0z"/>
<path d="M653 895 c0 -8 4 -12 9 -9 5 3 6 10 3 15 -9 13 -12 11 -12 -6z"/>
<path d="M687 839 c7 -7 15 -10 18 -7 3 3 -2 9 -12 12 -14 6 -15 5 -6 -5z"/>
<path d="M556 807 c3 -10 9 -15 12 -12 3 3 0 11 -7 18 -10 9 -11 8 -5 -6z"/>
<path d="M3213 375 c0 -8 4 -12 9 -9 5 3 6 10 3 15 -9 13 -12 11 -12 -6z"/>
<path d="M3315 379 c-3 -4 2 -6 10 -5 21 3 28 13 10 13 -9 0 -18 -4 -20 -8z"/>
<path d="M3375 379 c-3 -4 2 -6 10 -5 21 3 28 13 10 13 -9 0 -18 -4 -20 -8z"/>
<path d="M3033 205 c0 -8 4 -12 9 -9 5 3 6 10 3 15 -9 13 -12 11 -12 -6z"/>
</g>
</svg>
